<svg width="24" height="22" viewBox="0 0 24 22" fill="none" xmlns="http://www.w3.org/2000/svg">
<path fill-rule="evenodd" clip-rule="evenodd" d="M23.6196 10.8653C23.6196 4.91691 18.4703 0.09375 12.1196 0.09375C5.76896 0.09375 0.619629 4.91691 0.619629 10.8653C0.619629 16.2415 4.82432 20.6978 10.3228 21.5066V13.9799H7.40206V10.8653H10.3228V8.49221C10.3228 5.79307 12.0401 4.30092 14.6666 4.30092C15.9249 4.30092 17.2412 4.51154 17.2412 4.51154V7.1626H15.7904C14.3626 7.1626 13.916 7.99258 13.916 8.84565V10.8653H17.1052L16.5959 13.9799H13.9165V21.5075C19.4149 20.6992 23.6196 16.2429 23.6196 10.8653Z" fill="url(#paint0_linear_15_2491)"/>
<defs>
<linearGradient id="paint0_linear_15_2491" x1="-0.160032" y1="0.0937501" x2="25.1207" y2="0.217467" gradientUnits="userSpaceOnUse">
<stop stop-color="#F52E98"/>
<stop offset="1" stop-color="#F87D3B"/>
</linearGradient>
</defs>
</svg>
