<svg width="23" height="23" viewBox="0 0 23 23" fill="none" xmlns="http://www.w3.org/2000/svg">
<path d="M16.5033 2.59575C17.7321 2.59928 18.9096 3.07057 19.7785 3.90669C20.6473 4.7428 21.1371 5.87581 21.1408 7.05825V15.9823C21.1371 17.1647 20.6473 18.2977 19.7785 19.1339C18.9096 19.97 17.7321 20.4413 16.5033 20.4448H7.22943C6.00063 20.4413 4.82321 19.97 3.95432 19.1339C3.08542 18.2977 2.59566 17.1647 2.59199 15.9823V7.05825C2.59566 5.87581 3.08542 4.7428 3.95432 3.90669C4.82321 3.07057 6.00063 2.59928 7.22943 2.59575H16.5033ZM16.5033 0.811035H7.22943C3.65869 0.811035 0.737305 3.62221 0.737305 7.05825V15.9823C0.737305 19.4183 3.65869 22.2295 7.22943 22.2295H16.5033C20.0741 22.2295 22.9955 19.4183 22.9955 15.9823V7.05825C22.9955 3.62221 20.0741 0.811035 16.5033 0.811035Z" fill="url(#paint0_linear_15_2493)"/>
<path d="M17.8946 7.05866C17.6195 7.05866 17.3505 6.98015 17.1218 6.83305C16.893 6.68596 16.7147 6.47689 16.6094 6.23228C16.5041 5.98768 16.4765 5.71852 16.5302 5.45884C16.5839 5.19917 16.7164 4.96065 16.9109 4.77343C17.1055 4.58622 17.3534 4.45872 17.6232 4.40707C17.8931 4.35542 18.1728 4.38193 18.427 4.48325C18.6812 4.58457 18.8985 4.75615 19.0513 4.97629C19.2042 5.19643 19.2858 5.45524 19.2858 5.72C19.2862 5.8959 19.2504 6.07015 19.1807 6.23273C19.1109 6.39531 19.0084 6.54304 18.8792 6.66742C18.7499 6.7918 18.5964 6.89039 18.4275 6.95753C18.2585 7.02467 18.0774 7.05904 17.8946 7.05866ZM11.8665 7.95078C12.6003 7.95078 13.3175 8.16015 13.9276 8.55241C14.5377 8.94468 15.0132 9.50222 15.294 10.1545C15.5748 10.8069 15.6483 11.5246 15.5051 12.2171C15.362 12.9096 15.0086 13.5457 14.4898 14.045C13.971 14.5442 13.3099 14.8842 12.5903 15.022C11.8707 15.1597 11.1247 15.089 10.4468 14.8188C9.76895 14.5486 9.18955 14.0911 8.78191 13.504C8.37426 12.9169 8.15668 12.2267 8.15668 11.5207C8.15774 10.5742 8.54893 9.66676 9.24444 8.99749C9.93994 8.32823 10.883 7.95179 11.8665 7.95078ZM11.8665 6.16606C10.766 6.16606 9.69013 6.4801 8.77505 7.06848C7.85997 7.65685 7.14675 8.49313 6.72558 9.47156C6.30441 10.45 6.19422 11.5266 6.40893 12.5653C6.62363 13.604 7.15361 14.5581 7.93182 15.307C8.71003 16.0558 9.70154 16.5658 10.781 16.7724C11.8604 16.979 12.9792 16.873 13.996 16.4677C15.0128 16.0624 15.8818 15.3761 16.4933 14.4955C17.1047 13.615 17.4311 12.5797 17.4311 11.5207C17.4311 10.1005 16.8448 8.73858 15.8013 7.73439C14.7577 6.73021 13.3424 6.16606 11.8665 6.16606Z" fill="url(#paint1_linear_15_2493)"/>
<defs>
<linearGradient id="paint0_linear_15_2493" x1="-0.0172091" y1="0.811035" x2="24.4482" y2="0.926875" gradientUnits="userSpaceOnUse">
<stop stop-color="#F52E98"/>
<stop offset="1" stop-color="#F87D3B"/>
</linearGradient>
<linearGradient id="paint1_linear_15_2493" x1="5.86187" y1="4.38135" x2="20.1332" y2="4.44892" gradientUnits="userSpaceOnUse">
<stop stop-color="#F52E98"/>
<stop offset="1" stop-color="#F87D3B"/>
</linearGradient>
</defs>
</svg>
